<?xml version="1.0" standalone="no"?><!DOCTYPE svg PUBLIC "-//W3C//DTD SVG 1.1//EN" "http://www.w3.org/Graphics/SVG/1.1/DTD/svg11.dtd"><svg t="1616937031590" class="icon" viewBox="0 0 1024 1024" version="1.1" xmlns="http://www.w3.org/2000/svg" p-id="36498" xmlns:xlink="http://www.w3.org/1999/xlink" width="280" height="280"><defs><style type="text/css"></style></defs><path d="M466.1 463.8c195.1-111.3 379.8-156.1 412.5-100.2 32.7 56-98.9 191.5-294 302.8S204.8 822.5 172 766.5c-32.7-55.9 99-191.5 294.1-302.7z" fill="rgb(255 72 36)" p-id="36499"></path><path d="M512 940.1c-88.5 0-136.2-220.6-136.2-428.1S423.6 83.9 512 83.9 648.3 304.5 648.3 512 600.5 940.1 512 940.1z m0-822.6c-42.8 0-102.6 150.1-102.6 394.5S469.2 906.5 512 906.5c42.9 0 102.6-150.1 102.6-394.5S554.9 117.5 512 117.5z" fill="#1D1B4C" p-id="36500"></path><path d="M801.3 754c-88.9 0-231.5-54.6-356.8-126.1-162.6-92.8-285.1-204.1-304.6-277-5-18.8-3.6-35.3 4.4-48.9 43.9-75.1 257.1-7.6 435.3 94 162.6 92.8 285 204.1 304.6 277 5 18.8 3.6 35.3-4.4 48.9-13 22.4-41 32.1-78.5 32.1zM461.2 598.7C671 718.4 829.5 741.3 850.8 705c3.2-5.5 3.5-13.4 0.9-23.2-14.4-53.9-118.3-159.3-288.8-256.5C353 305.6 194.5 282.7 173.3 319c-3.2 5.5-3.6 13.3-0.9 23.2 14.4 53.8 118.2 159.3 288.8 256.5z" fill="#1D1B4C" p-id="36501"></path><path d="M222.8 754c-37.5 0-65.5-9.7-78.5-32-7.9-13.6-9.4-30-4.4-48.9 19.5-72.9 141.9-184.3 304.6-277 178.3-101.6 391.4-169.1 435.3-94 8 13.6 9.4 30 4.4 48.9-19.5 72.9-141.9 184.3-304.6 277-125.4 71.4-267.9 126-356.8 126z m238.4-328.7C290.7 522.5 186.9 628 172.4 681.8c-2.6 9.8-2.3 17.6 0.9 23.2 21.2 36.3 179.7 13.4 389.6-106.3C733.4 501.5 837.2 396 851.7 342.2c2.6-9.8 2.3-17.6-0.9-23.2-21.2-36.3-179.8-13.4-389.6 106.3z" fill="#1D1B4C" p-id="36502"></path><path d="M498.7 595.1c-2.9 0-5.9-0.8-8.6-2.4-8-4.8-10.5-15.1-5.8-23.1l24.5-40.9h-23.4c-6.1 0-11.6-3.3-14.6-8.5-3-5.3-2.9-11.7 0.2-16.9l39.8-66.3c4.8-8 15.1-10.5 23.1-5.8 8 4.8 10.5 15.1 5.8 23.1l-24.5 40.9h23.4c6.1 0 11.6 3.3 14.6 8.5 3 5.3 2.9 11.7-0.2 16.9L513.2 587c-3.2 5.2-8.7 8.1-14.5 8.1zM804 528.9c-2.3 0-4.4-0.5-6.4-1.4-2.1-0.8-4-2-5.5-3.7-3.2-3.1-4.9-7.3-4.9-11.8 0-1.2 0-2.3 0.3-3.4 0.1-1.1 0.4-2.1 0.9-3.1 0.5-1.1 0.9-2.1 1.5-3.1 0.6-0.9 1.4-1.7 2.1-2.4 0.8-0.8 1.5-1.5 2.4-2.1 0.9-0.6 2-1.1 3-1.5 0.9-0.5 2-0.8 3.1-0.9 5.5-1.1 11.3 0.6 15.1 4.6 0.9 0.8 1.5 1.5 2.1 2.4 0.6 0.9 1.1 2 1.5 3.1 0.4 0.9 0.8 2 0.9 3.1 0.3 1.1 0.5 2.1 0.5 3.4 0 4.4-1.8 8.7-5 11.8-1.5 1.7-3.4 2.9-5.3 3.7-2 0.8-4.2 1.3-6.3 1.3zM857 528.9c-2.3 0-4.4-0.5-6.4-1.4-2.1-0.8-4-2-5.5-3.7-3.2-3.1-4.9-7.3-4.9-11.8 0-4.4 1.8-8.9 4.9-11.9 0.8-0.8 1.7-1.5 2.6-2.1 0.9-0.6 1.8-1.1 2.9-1.5 0.9-0.5 2-0.8 3-0.9 5.5-1.1 11.3 0.6 15.3 4.6 3.1 3.1 4.9 7.5 4.9 11.9s-1.8 8.6-5 11.8c-1.5 1.7-3.4 2.9-5.3 3.7-2.2 0.8-4.3 1.3-6.5 1.3zM910.1 528.9c-4.4 0-8.7-1.8-11.9-5-1.5-1.5-2.7-3.4-3.7-5.4-0.8-2.1-1.2-4.3-1.2-6.4 0-4.4 1.8-8.9 4.9-11.9 6.3-6.3 17.6-6.3 23.9 0 3.1 3.1 4.9 7.5 4.9 11.9 0 2.1-0.4 4.3-1.2 6.4-0.9 2-2.1 3.8-3.7 5.4-3.3 3.1-7.6 5-12 5zM113.9 528.9c-4.4 0-8.7-1.8-11.8-5-3.2-3.1-5-7.3-5-11.8 0-4.4 1.8-8.9 5-11.9 6.1-6.3 17.4-6.3 23.7 0 3.2 3.1 4.9 7.5 4.9 11.9 0 2.1-0.3 4.3-1.2 6.4-0.8 2-2.1 3.8-3.7 5.4-3.1 3.1-7.3 5-11.9 5zM167.1 528.9c-4.6 0-8.7-1.8-11.9-5-3.2-3.1-5-7.3-5-11.8 0-4.4 1.8-8.9 5-11.9 6.3-6.3 17.4-6.3 23.7 0 3.2 3.1 4.9 7.5 4.9 11.9s-1.7 8.7-4.9 11.8c-3.2 3.1-7.3 5-11.8 5zM220.2 528.9c-2.3 0-4.4-0.5-6.4-1.4-2.1-0.8-4-2-5.5-3.7-3.2-3.1-4.9-7.3-4.9-11.8 0-4.4 1.8-8.9 4.9-11.9 6.3-6.3 17.6-6.3 23.8 0 0.8 0.8 1.4 1.5 2 2.6 0.6 0.8 1.2 1.8 1.5 2.9 0.5 0.9 0.8 2 1.1 3.1 0.2 1.1 0.3 2.1 0.3 3.4 0 4.4-1.8 8.7-4.9 11.8-3.2 3.1-7.5 5-11.9 5zM366.1 276.1c-4.6 0-8.7-1.8-11.9-5-1.5-1.5-2.7-3.4-3.7-5.4-0.8-2.1-1.2-4.3-1.2-6.6 0-4.3 1.8-8.7 4.9-11.8 0.8-0.8 1.7-1.5 2.6-2.1 0.9-0.6 1.8-1.1 2.9-1.5 0.9-0.5 2-0.8 3.1-0.9 5.5-1.2 11.3 0.6 15.1 4.6 3.2 3.1 5 7.5 5 11.8 0 2.3-0.4 4.4-1.4 6.6-0.8 2-2 3.8-3.7 5.4-3 3.1-7.2 4.9-11.7 4.9zM339.5 230.1c-4.4 0-8.7-1.8-11.9-4.9-3.1-3.2-4.9-7.5-4.9-11.9s1.8-8.9 4.9-11.9c6.3-6.3 17.6-6.3 23.8 0 3.1 3.1 4.9 7.5 4.9 11.9s-1.7 8.7-4.9 11.9c-3.2 3-7.4 4.9-11.9 4.9zM313.1 184.1c-4.6 0-8.7-1.7-11.9-4.9-1.7-1.5-2.9-3.4-3.7-5.5-0.9-2-1.2-4.1-1.2-6.4 0-4.4 1.7-8.7 4.9-11.9 3.8-3.8 9.6-5.6 15.1-4.6 1.1 0.3 2.1 0.6 3.2 1.1 0.9 0.3 2 0.9 2.9 1.5 0.9 0.6 1.7 1.2 2.4 2 0.8 0.8 1.5 1.7 2.1 2.6 0.6 0.9 1.1 1.8 1.5 2.9 0.5 1.1 0.8 2.1 0.9 3.2 0.3 1.1 0.5 2.1 0.5 3.2 0 4.4-1.8 8.7-5 11.9-3.2 3.2-7.3 4.9-11.7 4.9zM711.1 873.5c-4.4 0-8.7-1.7-11.9-4.9-3.2-3.2-4.9-7.3-4.9-11.9 0-4.4 1.8-8.7 4.9-11.9 1.5-1.5 3.4-2.8 5.5-3.7 0.9-0.3 2-0.6 3.1-0.9 2.3-0.3 4.4-0.5 6.6 0 1.1 0.3 2.1 0.6 3.2 0.9 2 0.9 3.8 2.1 5.5 3.7 3.1 3.2 4.9 7.5 4.9 11.9s-1.8 8.7-4.9 11.9c-1.7 1.5-3.5 2.8-5.5 3.7-2.1 0.8-4.2 1.2-6.5 1.2zM684.5 827.5c-4.4 0-8.7-1.7-11.8-4.9-3.2-3.2-5-7.3-5-11.9 0-2.1 0.5-4.3 1.4-6.4 0.3-0.9 0.9-2 1.5-2.9s1.2-1.7 2-2.6c0.8-0.8 1.7-1.4 2.6-2 0.9-0.6 2-1.2 2.9-1.5 3-1.4 6.4-1.7 9.8-1.1 1.1 0.3 2.1 0.6 3.1 1.1 1.1 0.3 2 0.9 2.9 1.5 0.9 0.6 1.8 1.2 2.6 2 0.8 0.9 1.5 1.7 2.1 2.6s1.1 2 1.5 2.9c0.8 2.1 1.2 4.3 1.2 6.4 0 4.6-1.7 8.7-4.9 11.9-1.5 1.5-3.4 2.8-5.5 3.7-2 0.9-4.1 1.2-6.4 1.2zM658 781.7c-4.6 0-8.7-1.8-11.9-5-3.2-3.1-4.9-7.3-4.9-11.9 0-1.1 0-2.1 0.3-3.2 0.2-1.1 0.5-2.1 0.9-3.1 0.4-1.1 0.9-2.1 1.5-2.9 0.6-1.1 1.4-1.8 2.1-2.6 3.8-4 9.6-5.8 15.1-4.6 1.1 0.1 2.1 0.5 3.2 0.9 0.9 0.5 2 0.9 2.9 1.5 0.9 0.6 1.7 1.4 2.4 2.1 0.9 0.8 1.5 1.5 2.1 2.6 0.6 0.8 1.1 1.8 1.5 2.9 0.5 0.9 0.8 2 0.9 3.1 0.3 1.1 0.5 2.1 0.5 3.2 0 4.6-1.8 8.9-5 11.9-1.5 1.7-3.4 2.9-5.4 3.7-1.9 0.9-4 1.4-6.2 1.4zM366.1 781.7c-4.6 0-8.7-1.8-11.9-5-3.2-3.1-4.9-7.3-4.9-11.8 0-1.2 0.2-2.3 0.3-3.4 0.1-1.1 0.6-2.1 0.9-3.1 0.5-1.1 0.9-2.1 1.5-2.9 0.6-1.1 1.4-1.8 2.1-2.6 0.8-0.8 1.7-1.5 2.6-2.1 0.9-0.6 1.8-1.1 2.9-1.5 0.9-0.5 2-0.8 3.1-0.9 5.5-1.1 11.3 0.6 15.1 4.6 3.2 3.1 5 7.5 5 11.9s-1.8 8.6-5 11.8c-3 3.1-7.2 5-11.7 5zM339.5 827.5c-4.4 0-8.7-1.7-11.9-4.9-1.5-1.5-2.8-3.4-3.7-5.5-0.8-2-1.2-4.1-1.2-6.4 0-4.4 1.8-8.7 4.9-11.9 0.8-0.8 1.7-1.4 2.6-2 0.9-0.6 1.8-1.1 2.9-1.5 1.1-0.5 2.1-0.8 3.2-0.9 5.4-1.2 11.2 0.6 15.1 4.4 3.1 3.2 4.9 7.5 4.9 11.9 0 2.3-0.4 4.4-1.2 6.4-0.9 2.1-2.1 4-3.7 5.5-1.5 1.5-3.4 2.8-5.5 3.7-1.9 0.8-4.1 1.2-6.4 1.2zM313.1 873.5c-4.6 0-8.7-1.7-11.9-4.9-3.2-3.2-4.9-7.3-4.9-11.9 0-4.4 1.7-8.7 4.9-11.9 3.8-3.8 9.6-5.7 15.1-4.6 1.1 0.3 2.1 0.6 3.2 1.1 0.9 0.3 2 0.9 2.9 1.5 0.9 0.6 1.7 1.2 2.4 2 0.8 0.8 1.5 1.7 2.1 2.6s1.1 1.8 1.5 2.9c0.5 1.1 0.8 2.1 0.9 3.2 0.3 1.1 0.5 2.1 0.5 3.2 0 2.3-0.5 4.4-1.4 6.4-0.8 2.1-2 4-3.7 5.5-1.5 1.5-3.4 2.8-5.4 3.7-1.9 0.8-4.1 1.2-6.2 1.2zM711.1 184.1c-4.4 0-8.7-1.7-11.9-4.9s-4.9-7.3-4.9-11.9c0-4.4 1.8-8.7 4.9-11.9 1.5-1.5 3.4-2.7 5.5-3.7 0.9-0.3 2-0.6 3.1-0.9 2.3-0.5 4.4-0.5 6.6 0 1.1 0.3 2.1 0.6 3.2 0.9 2 0.9 3.8 2.1 5.5 3.7 3.1 3.2 4.9 7.5 4.9 11.9s-1.8 8.7-4.9 11.9c-1.7 1.5-3.5 2.8-5.5 3.7-2.1 0.7-4.2 1.2-6.5 1.2z" fill="#1D1B4C" p-id="36503"></path><path d="M684.5 230.1c-4.4 0-8.7-1.8-11.8-4.9-3.2-3.2-5-7.5-5-11.9s1.8-8.7 4.9-11.9c0.8-0.8 1.7-1.5 2.6-2.1 0.9-0.6 2-1.1 2.9-1.5 3-1.2 6.4-1.5 9.8-0.9 1.1 0.2 2.1 0.5 3.1 0.9 1.1 0.5 2 0.9 2.9 1.5 0.9 0.6 1.8 1.4 2.6 2.1 3.2 3.2 4.9 7.5 4.9 11.9s-1.7 8.7-4.9 11.9c-3.3 3-7.4 4.9-12 4.9z" fill="#1D1B4C" p-id="36504"></path><path d="M658 275.9c-2.3 0-4.4-0.3-6.4-1.2-2.1-0.8-4-2-5.5-3.7-3.2-3.2-4.9-7.3-4.9-11.8 0-1.2 0-2.3 0.3-3.4 0.2-1.1 0.5-2.1 0.9-3.2 0.4-0.9 0.9-2 1.5-2.9 0.6-0.9 1.4-1.7 2.1-2.4 0.8-0.8 1.7-1.5 2.6-2.1 0.9-0.6 1.8-1.1 2.9-1.5 0.9-0.5 2-0.8 3.1-0.9 2.1-0.5 4.4-0.5 6.6 0 1.1 0.1 2.1 0.5 3.2 0.9 2 0.9 3.8 2.1 5.4 3.7 0.9 0.8 1.5 1.5 2.1 2.4 0.6 0.9 1.1 2 1.5 2.9 0.5 1.1 0.8 2.1 0.9 3.2 0.3 1.1 0.5 2.1 0.5 3.4 0 4.4-1.8 8.6-5 11.8-3 3.2-7.3 4.8-11.8 4.8z" fill="#1D1B4C" p-id="36505"></path></svg>